<svg viewBox="0 0 671 249" fill="none" xmlns="http://www.w3.org/2000/svg"><path d="M238.666 117.879h-44.135V58.094h41.724c5.985 0 10.362 1.3 13.132 3.903 2.771 2.602 4.156 6.422 4.156 11.459v29.725c0 1.218-.166 2.491-.499 3.82-.332 1.329-.941 2.574-1.828 3.736-1.718 2.547-3.546 4.373-5.485 5.48-1.94 1.108-4.295 1.662-7.065 1.662Zm-26.181-15.527h23.105v-28.73h-23.105v28.73ZM278.645 58.095h-17.954v59.784h17.954V58.095ZM285.878 102.517l-.083-1.494v-26.24c0-1.77.194-3.348.582-4.732 1.053-3.93 3.075-6.975 6.067-9.134 2.604-1.882 5.818-2.823 9.642-2.823h43.302v15.527h-41.64v28.731h23.771V82.256h17.953v21.507c0 2.27-.222 4.096-.665 5.48-.443 1.384-1.247 2.768-2.41 4.152-1.441 1.715-3.103 2.892-4.987 3.528-1.884.637-4.682.956-8.395.956h-30.67c-1.274 0-2.715-.333-4.321-.997-2.66-1.163-4.627-2.795-5.901-4.899-1.497-2.436-2.245-5.591-2.245-9.466ZM370.57 58.095h-17.953v59.784h17.953V58.095ZM392.097 73.621h-17.952V58.094h53.858v15.527H410.05v44.258h-17.953V73.621ZM449.53 117.879h-17.952V73.04l.166-1.993c.554-3.598 1.537-6.297 2.95-8.096 1.413-1.798 3.616-3.196 6.608-4.192.665-.222 1.496-.387 2.494-.498.997-.111 2.354-.167 4.072-.167h26.016c2.271 0 4.141.332 5.61.996 1.468.665 2.978 1.882 4.53 3.655 2.382 2.6 3.574 5.922 3.574 9.963v45.171h-17.954V94.796H449.53v23.083Zm0-35.871h20.114V73.62H449.53v8.387ZM542.62 117.879h-47.874V58.094h17.953v44.258h29.921v15.527ZM564.147 117.879h-17.954V58.094h22.858l19.365 29.727V58.094h17.953v59.785h-17.953l-24.269-38.612v38.612ZM631.47 117.879h-17.952V73.04l.165-1.993c.555-3.598 1.539-6.297 2.952-8.096 1.412-1.798 3.615-3.196 6.607-4.192.664-.222 1.496-.387 2.493-.498.998-.111 2.355-.167 4.073-.167h26.015c2.272 0 4.142.332 5.61.996 1.469.665 2.979 1.882 4.53 3.655 2.383 2.6 3.574 5.922 3.574 9.963v45.171h-17.953V94.796H631.47v23.083Zm0-35.871h20.114V73.62H631.47v8.387Z" fill="#0088AF"/><path d="M235.054 189.764h-40.79V134.51h38.563c5.53 0 9.576 1.202 12.137 3.607 2.56 2.405 3.841 5.935 3.841 10.591v27.473c0 1.126-.154 2.302-.461 3.53-.307 1.228-.871 2.38-1.69 3.454-1.588 2.353-3.278 4.042-5.07 5.065-1.794 1.023-3.969 1.534-6.53 1.534Zm-24.197-14.35h21.355v-26.552h-21.355v26.552ZM272.003 189.764H255.41v-41.441l.154-1.841c.512-3.325 1.42-5.819 2.726-7.483 1.307-1.662 3.342-2.954 6.108-3.875.614-.204 1.383-.358 2.304-.46.923-.103 2.177-.154 3.765-.154h24.044c2.1 0 3.828.307 5.185.921 1.358.614 2.753 1.74 4.187 3.377 2.202 2.405 3.303 5.474 3.303 9.209v41.747h-16.593V168.43h-18.59v21.334Zm0-33.152h18.59v-7.75h-18.59v7.75ZM358.039 189.764h-44.248V134.51h16.593v40.904h27.655v14.35ZM377.934 189.764h-16.592V134.51h23.199l8.911 37.297 8.834-37.297h23.199v55.254h-16.593v-38.677l-10.6 38.677h-9.987l-10.371-38.677v38.677ZM448.687 189.764h-16.593v-41.441l.154-1.841c.51-3.325 1.42-5.819 2.726-7.483 1.305-1.662 3.342-2.954 6.107-3.875.615-.204 1.384-.358 2.305-.46.921-.103 2.176-.154 3.764-.154h24.044c2.1 0 3.829.307 5.185.921 1.357.614 2.753 1.74 4.188 3.377 2.2 2.405 3.303 5.474 3.303 9.209v41.747h-16.593V168.43h-18.59v21.334Zm0-33.152h18.59v-7.75h-18.59v7.75ZM490.552 175.491l-.077-1.305v-24.25c0-1.638.178-3.096.537-4.375.973-3.632 2.843-6.446 5.608-8.442 2.406-1.739 5.378-2.609 8.912-2.609h33.876v14.352h-32.34v26.552h32.34v14.35h-37.027c-1.382 0-2.765-.28-4.148-.843-2.408-1.024-4.251-2.558-5.531-4.605-1.434-2.302-2.15-5.244-2.15-8.825ZM562.609 134.51h-16.593v55.255h16.593V134.51ZM568.138 183.165c-1.382-1.995-2.074-4.528-2.074-7.598v-10.513h16.594v10.36h13.289V134.51h16.593v44.895c0 .971-.218 1.982-.654 3.031-.435 1.048-1.139 2.162-2.112 3.338-2.202 2.661-5.3 3.99-9.295 3.99h-23.583c-.513 0-1.114-.14-1.806-.421-.692-.281-1.651-.806-2.88-1.573a17.148 17.148 0 0 1-1.921-1.728c-.614-.639-1.332-1.598-2.151-2.877ZM635.818 189.764h-16.593v-41.441l.154-1.841c.511-3.325 1.42-5.819 2.726-7.483 1.306-1.662 3.342-2.954 6.107-3.875.615-.204 1.383-.358 2.305-.46.922-.103 2.177-.154 3.765-.154h24.043c2.1 0 3.829.307 5.185.921 1.357.614 2.754 1.74 4.188 3.377 2.2 2.405 3.303 5.474 3.303 9.209v41.747h-16.593V168.43h-18.59v21.334Zm0-33.152h18.59v-7.75h-18.59v7.75Z" fill="#DBAF52"/><path d="M172.88 38H0v172.708h172.88V38Z" fill="#0088AF"/><path d="M38.296 124.371v-19.227H19.068v57.622h19.228v-19.187h19.228v-19.208H38.296Z" fill="#DBAF52"/><path d="M95.975 105.163V85.937H76.748v19.226H57.523v19.209h19.225v19.187h19.227v-19.187h19.228v-19.209H95.975Z" fill="#DBAF52"/><path d="M134.432 105.145v19.227h-19.229v19.204h19.229v19.191h19.226v-57.622h-19.226Z" fill="#DBAF52"/></svg>